<?xml version="1.0" encoding="UTF-8" standalone="no"?>
<svg width="120px" height="130px" viewBox="0 0 120 130" version="1.1" xmlns="http://www.w3.org/2000/svg" xmlns:xlink="http://www.w3.org/1999/xlink" xmlns:sketch="http://www.bohemiancoding.com/sketch/ns">
    <!-- Generator: Sketch 3.4.4 (17249) - http://www.bohemiancoding.com/sketch -->
    <title>logo1</title>
    <desc>Created with Sketch.</desc>
    <defs></defs>
    <g id="Page-1" stroke="none" stroke-width="1" fill="none" fill-rule="evenodd" sketch:type="MSPage">
        <g id="Logo-1" sketch:type="MSArtboardGroup" transform="translate(-24.000000, -10.000000)">
            <g id="logo1" sketch:type="MSLayerGroup" transform="translate(24.000000, 10.000000)">
                <path d="M85.6973307,76.8975591 C84.5580394,78.0951969 82.9959921,79.4566142 80.8289843,79.2508661 L69.9949685,78.3408661 C68.5260709,78.2026772 67.5659134,77.5895276 66.3559921,75.8462992 C65.5831575,74.888189 64.4755984,74.1941732 63.1715039,73.9587402 C60.2807953,73.4346457 57.5118976,75.353937 56.9878031,78.2466929 C56.4657559,81.1384252 58.3850472,83.9052756 61.2788268,84.4262992 C62.5696142,84.6607087 63.8337874,84.4088976 64.8870945,83.8008661 C66.8862283,82.6411024 67.8300079,82.373937 69.1955197,82.7649606 L79.6354409,85.9279528 C81.7144173,86.5564567 82.5404803,87.481811 83.3501654,89.4451181 C84.8231575,93.0134646 88.0281181,95.7823622 92.1092992,96.5224409 C98.4844173,97.676063 104.59237,93.4433858 105.745992,87.0682677 C106.89552,80.692126 102.66489,74.590315 96.2897717,73.4346457 C95.5834724,73.3066929 94.8822913,73.2473228 94.1903228,73.2473228 C90.9218976,73.2473228 87.8684331,74.6159055 85.6973307,76.8975591 M47.0832362,69.4824409 C44.3204803,70.476378 42.883315,73.5226772 43.8752047,76.2854331 C44.3163858,77.5209449 45.1680394,78.4913386 46.2223701,79.0962992 C48.2255984,80.2519685 48.9288268,80.935748 49.274811,82.3114961 L51.7560709,92.9377165 C52.2494567,95.0504724 51.8615039,96.2307087 50.5686693,97.9114961 C48.2112677,100.97315 47.4159134,105.131102 48.8192992,109.037244 C51.0057559,115.134961 57.7237874,118.304094 63.8215039,116.116614 C69.9192205,113.92811 73.0904016,107.210079 70.900874,101.110315 C69.5128425,97.2522835 66.3140236,94.5673228 62.6054409,93.6696063 C61.0004016,93.2816535 59.0391417,92.6122047 58.1332362,90.6304724 L53.5033937,80.7965354 C52.8912677,79.4504724 52.9414252,78.3152756 53.8452835,76.3980315 C54.2905591,75.2485039 54.3345748,73.940315 53.8892992,72.6935433 C53.1092992,70.5214173 51.0620551,69.168189 48.8807165,69.168189 C48.2829213,69.168189 47.676937,69.2705512 47.0832362,69.4824409 M42.2230787,57.1447244 C41.3755197,58.1468504 40.9619764,59.3680315 40.9619764,60.5851181 C40.9660709,62.8944094 40.7255197,63.8484252 39.7018976,64.832126 L31.7452835,72.2953543 C30.1617402,73.7806299 28.9467008,74.0344882 26.8411102,73.7550394 C23.0127638,73.2473228 19.0124488,74.6343307 16.3305591,77.8014173 C12.1449685,82.7455118 12.7581181,90.1462992 17.7042598,94.3349606 C22.6483543,98.5215748 30.0501654,97.9074016 34.2367795,92.9633071 C36.8848898,89.8330709 37.612685,85.7201575 36.5358346,82.059685 C36.0659921,80.4740945 35.6698504,78.4391339 36.9309528,76.6631496 L43.1330787,67.7412598 C43.990874,66.5374803 45.0001654,66.0113386 47.1139449,65.8373228 C48.3289843,65.6459055 49.4846535,65.0337795 50.3424488,64.0203937 C52.2412677,61.7786614 51.9638661,58.4222047 49.719063,56.5213386 C48.7210315,55.677874 47.4998504,55.2633071 46.2858346,55.2633071 C44.7739449,55.2612598 43.2753622,55.9030709 42.2230787,57.1447244 M13.5084331,43.503937 C12.354811,49.8790551 16.5864646,55.9829134 22.9626063,57.1365354 C26.998748,57.866378 30.923315,56.4394488 33.553,53.6756693 C34.6963858,52.4790551 36.2553622,51.1155906 38.4223701,51.3213386 L49.2543386,52.230315 C50.7263071,52.3705512 51.6854409,52.9847244 52.893315,54.7279528 C53.6671732,55.6809449 54.772685,56.3770079 56.0818976,56.6155118 C58.9715827,57.1365354 61.7404803,55.2172441 62.2615039,52.3244882 C62.7855984,49.4337795 60.8642598,46.6669291 57.9755984,46.1428346 C56.6878819,45.9114961 55.4185906,46.1633071 54.3652835,46.7723622 C52.365126,47.9280315 51.4203228,48.1982677 50.0609528,47.8082677 L39.6159134,44.6452756 C37.536937,44.015748 36.7098504,43.0903937 35.9001654,41.1270866 C34.4281969,37.5577165 31.2232362,34.7867717 27.1389843,34.0497638 C26.4347323,33.921811 25.7315039,33.8593701 25.0395354,33.8593701 C19.4741024,33.8593701 14.5341024,37.8361417 13.5084331,43.503937 M85.0155984,37.607874 C82.3644173,40.7391339 81.6386693,44.8551181 82.7144961,48.5135433 C83.1822913,50.0991339 83.5845748,52.1330709 82.3204016,53.9080315 L76.1192992,62.8329921 C75.2635512,64.0367717 74.251189,64.5598425 72.1343386,64.7338583 C70.9203228,64.9262992 69.7667008,65.5394488 68.9078819,66.551811 C67.0100866,68.7925197 67.2905591,72.1510236 69.533315,74.0488189 C71.7740236,75.9476378 75.1315039,75.6702362 77.0323701,73.4264567 C77.8758346,72.4274016 78.2904016,71.2051969 78.2904016,69.9881102 C78.2883543,67.6767717 78.5258346,66.7237795 79.5494567,65.7400787 L87.5070945,58.2768504 C89.0896142,56.7905512 90.3056772,56.5387402 92.4092205,56.8192126 C96.2396142,57.3269291 100.237882,55.9368504 102.920795,52.7707874 C107.107409,47.8266929 106.493236,40.4248819 101.547094,36.2362205 C99.3442598,34.3711811 96.6511102,33.4591339 93.9763858,33.4591339 C90.6455197,33.4591339 87.3371732,34.8686614 85.0155984,37.6099213 M55.4329213,14.4545669 C49.3331575,16.6440945 46.1619764,23.3611024 48.3515039,29.4588189 C49.7364646,33.3199213 52.9373307,36.0048819 56.6459134,36.9025984 C58.2519764,37.2905512 60.2132362,37.96 61.1181181,39.9407087 L65.7448898,49.7756693 C66.3600866,51.1207087 66.3089055,52.2589764 65.403,54.1762205 C64.9628425,55.3237008 64.9147323,56.6288189 65.365126,57.8786614 C66.3549685,60.6455118 69.4012677,62.0806299 72.1681181,61.0897638 C74.9329213,60.097874 76.3711102,57.0505512 75.3792205,54.2837008 C74.9349685,53.0502362 74.0812677,52.0829134 73.0279606,51.4748819 C71.0288268,50.3212598 70.3225276,49.6354331 69.9796142,48.259685 L67.4963071,37.6365354 C67.0039449,35.5207087 67.3878031,34.3414961 68.6857559,32.659685 C71.039063,29.5990551 71.8364646,25.4400787 70.435126,21.5359843 C68.7154409,16.7454331 64.203315,13.7625984 59.393315,13.7625984 C58.0779606,13.7625984 56.7400866,13.9847244 55.4329213,14.4545669" id="Fill-1" fill="#1874BD" sketch:type="MSShapeGroup"></path>
                <g id="Group-5" fill="#CCCCCC" sketch:type="MSShapeGroup">
                    <path d="M59.9668504,130 C53.0891339,130 46.8440157,127.268976 42.2571654,122.834646 C38.4912598,119.191575 35.8441732,114.395906 34.8819685,109.015748 C29.6983465,110.993386 24.1462205,111.167402 19.034252,109.75378 C12.8126772,108.032047 7.2380315,103.965197 3.75976378,97.9401575 L5.92472441,96.6841732 L3.75362205,97.9401575 C3.7096063,97.8654331 3.67377953,97.7917323 3.63795276,97.713937 C0.298897638,91.8045669 -0.42480315,85.120315 1.10244094,79.0123622 C2.37173228,73.9311024 5.20307087,69.2429134 9.37944882,65.7196063 C5.07511811,62.2188189 2.15062992,57.4988976 0.820944882,52.3623622 C-0.800472441,46.1172441 -0.0634645669,39.2559055 3.41787402,33.2277953 L3.41377953,33.2237008 C3.45370079,33.1520472 3.49976378,33.0834646 3.54582677,33.0159055 C7.00055118,27.1659055 12.4267717,23.1952756 18.4804724,21.4643307 C23.5105512,20.0240945 28.9859055,20.1325984 34.1285827,21.9935433 C35.0058268,16.5120472 37.6334646,11.6181102 41.4137008,7.89724409 C46.0159055,3.36669291 52.3296063,0.572204724 59.2851181,0.572204724 C66.1607874,0.572204724 72.4038583,3.3011811 76.9907087,7.73755906 C80.7607087,11.3796063 83.4098425,16.1762992 84.37,21.5564567 C89.553622,19.5788189 95.105748,19.4027559 100.217717,20.8184252 C106.439291,22.5401575 112.01189,26.6059843 115.494252,32.6340945 L113.325197,33.8870079 L115.500394,32.6340945 C115.540315,32.7077953 115.578189,32.7814961 115.616063,32.8582677 C118.951024,38.7676378 119.676772,45.4508661 118.149528,51.5588189 C116.878189,56.6411024 114.050945,61.3292913 109.874567,64.8515748 C114.17685,68.3523622 117.101339,73.0733071 118.431024,78.2088189 C120.050394,84.4549606 119.316457,91.3162992 115.834094,97.3444094 L115.838189,97.3485039 C115.800315,97.4201575 115.754252,97.4897638 115.704094,97.5562992 C112.253465,103.406299 106.825197,107.375906 100.775591,109.109921 C95.7414173,110.547087 90.266063,110.439606 85.1254331,108.579685 C84.2440945,114.060157 81.6205512,118.956142 77.8382677,122.677008 C73.236063,127.205512 66.9244094,130 59.9668504,130 M45.7282677,119.228425 C49.4102362,122.79063 54.4311024,124.982205 59.9668504,124.982205 C65.5691339,124.982205 70.6411811,122.740472 74.3292913,119.107638 C77.9877165,115.509606 80.2990551,110.545039 80.4433858,105.047165 C80.4116535,104.593701 80.5068504,104.13 80.7330709,103.700079 C81.3871654,102.477874 82.9082677,102.01622 84.1294488,102.66622 L84.126378,102.676457 C88.9783465,105.267244 94.4506299,105.703307 99.3977953,104.287638 C104.268189,102.894488 108.626772,99.7130709 111.393622,95.0330709 C111.424331,94.9665354 111.456063,94.9030709 111.493937,94.8365354 L113.669134,96.0925197 L111.500079,94.8365354 C114.296614,89.9948031 114.890315,84.4785039 113.591339,79.4627559 C112.303622,74.49 109.154961,70.0024409 104.450394,67.1291339 C104.050157,66.9274803 103.699055,66.6193701 103.449291,66.2119685 C102.713307,65.0358268 103.076693,63.4881102 104.250787,62.7572441 L105.578425,64.886378 L104.252835,62.7592913 C108.92874,59.8501575 112.039528,55.333937 113.28937,50.3437795 C114.516693,45.4334646 113.941417,40.0676378 111.271811,35.3272441 C111.227795,35.2688976 111.189921,35.2054331 111.154094,35.1429921 L111.158189,35.1409449 C108.36063,30.2930709 103.880236,27.0215748 98.8859843,25.6407087 C93.9388189,24.2711024 88.4788189,24.7532283 83.6381102,27.3880315 C83.2624409,27.6337008 82.818189,27.7841732 82.3401575,27.8015748 C80.9531496,27.8455906 79.7933858,26.7605512 79.7473228,25.3745669 L82.2582677,25.2906299 L79.7575591,25.3684252 C79.5733071,19.8685039 77.22,14.9162205 73.5237008,11.3417323 C69.8407087,7.78362205 64.8208661,5.59 59.2851181,5.59 C53.6848819,5.59 48.6128346,7.83275591 44.9226772,11.4635433 C41.264252,15.0646457 38.9508661,20.0261417 38.8085827,25.5229921 C38.8382677,25.9785039 38.748189,26.4422047 38.5168504,26.8741732 C37.8648031,28.0953543 36.3437008,28.5570079 35.1225197,27.903937 L35.1276378,27.895748 C30.273622,25.3049606 24.8033858,24.8688976 19.8500787,26.2845669 C14.9817323,27.6777165 10.6251969,30.8601575 7.85834646,35.5391339 C7.8276378,35.6046457 7.79385827,35.6691339 7.7580315,35.7346457 L5.58488189,34.479685 L7.74984252,35.7346457 C4.95330709,40.5794488 4.3596063,46.0926772 5.66062992,51.1094488 C6.9503937,56.0832283 10.0990551,60.5697638 14.8015748,63.4440945 C15.201811,63.6447244 15.5529134,63.9528346 15.8047244,64.358189 C16.5366142,65.5353543 16.1773228,67.0851181 15.0011811,67.8149606 L13.6735433,65.6858268 L14.9970866,67.8129134 C10.3252756,70.7220472 7.2103937,75.2382677 5.96259843,80.2284252 C4.73527559,85.1407874 5.31259843,90.5045669 7.98015748,95.2429134 C8.02212598,95.3043307 8.06204724,95.3647244 8.09787402,95.4292126 L8.09173228,95.4312598 C10.8933858,100.281181 15.3737795,103.549606 20.3649606,104.931496 C25.3131496,106.30315 30.7751969,105.818976 35.6159055,103.18622 C35.9895276,102.938504 36.4317323,102.788031 36.9138583,102.769606 C38.2967717,102.727638 39.4565354,103.813701 39.5046457,105.197638 L36.9977953,105.279528 L39.4944094,105.200709 C39.6786614,110.702677 42.0319685,115.654961 45.7282677,119.228425" id="Fill-3"></path>
                </g>
            </g>
        </g>
    </g>
</svg>